<svg xmlns="http://www.w3.org/2000/svg" xmlns:xlink="http://www.w3.org/1999/xlink" viewBox="0 0 130 31">
  <defs>
    <path id="a" d="M.009.149h17.984v29.843H.01z"></path>
  </defs>
  <g fill="none" fill-rule="evenodd">
  <mask id="b" fill="#fff">
    <use xlink:href="#a"></use>
  </mask>
  <path fill="#EFA847" d="M17.993 11.325L8.715 1.7a4.976 4.976 0 00-7.22 0c-1.993 2.068-1.993 5.422 0 7.49l5.668 5.88 3.61-3.745a4.976 4.976 0 017.22 0" mask="url(#b)"></path>
  <path fill="#747975" d="M10.773 18.815l-3.61-3.745-5.668 5.88c-1.993 2.07-1.993 5.423 0 7.49a4.997 4.997 0 003.61 1.552 4.997 4.997 0 003.61-1.551l9.278-9.626a4.997 4.997 0 01-3.61 1.552 4.997 4.997 0 01-3.61-1.552" mask="url(#b)"></path>
  <path fill="#FFFFFE" d="M17.993 11.325a4.976 4.976 0 00-7.22 0l-3.61 3.745 3.61 3.745a4.997 4.997 0 003.61 1.552 4.997 4.997 0 003.61-1.552c1.994-2.068 1.994-5.421 0-7.49"></path>
  <path fill="#EFA847" d="M25.586 10.806h2.007V3.509a6.22 6.22 0 01-.76.056c-.578 0-1.175-.15-1.337-.394L25.73.958h5.08c.905 0 1.086.056 1.393.281v2.27h-1.88v7.297c.162-.019.65-.056.958-.056.542 0 .904.13 1.012.225v2.344h-5.532c-.489 0-.905-.018-1.176-.318v-2.195m8.68.262V7.204l-.958-.244V4.822s.669-.263 1.356-.263c1.428 0 1.934.9 1.934 2.158h.037c.144-1.295 1.066-2.195 2.06-2.195.58 0 1.068.112 1.411.431l-.361 2.607a2.717 2.717 0 00-.724-.112c-1.139 0-1.717.882-2.007 1.67v4.201h-2.44c-.145-.262-.308-.825-.308-2.25m10.451-4.615c-1.05 0-1.592.825-1.592 2.495 0 1.482.344 2.645 1.61 2.645 1.265 0 1.645-.938 1.645-2.608 0-1.5-.434-2.532-1.663-2.532zm-4.322 2.832c0-2.907 1.519-4.896 4.61-4.896 2.713 0 4.105 1.614 4.105 4.277 0 3.264-1.663 4.934-4.665 4.934-2.278 0-4.05-1.35-4.05-4.315zm10.469 1.444V7.168l-.922-.244V4.859c.09-.018.74-.262 1.374-.262.687 0 1.663.112 1.989 1.2.615-.844 1.645-1.294 2.839-1.294 1.826 0 2.82.882 2.82 3.133l-.036 3.376.904.188v1.95c-.434.244-1.103.357-1.573.357-.976 0-1.627-.3-1.826-1.2-.217-.413-.163-2.702-.163-3.865 0-1.181-.362-1.594-1.266-1.594-.47 0-1.012.187-1.356.469.018.337.037.806.037 1.275v4.727h-2.532c-.235-.431-.29-1.2-.29-2.588m10.451.394V7.167l-.922-.263V4.878c.362-.15.94-.281 1.41-.281.923 0 1.646.281 1.953 1.144.724-.844 1.7-1.238 2.73-1.238 1.303 0 2.062.45 2.441 1.257.633-.863 1.592-1.257 2.803-1.257 1.845 0 2.514 1.163 2.514 3.283v3.245l.886.169v1.932c-.453.319-1.14.356-1.646.356-1.085 0-1.916-.375-1.916-2.007V8.442c0-1.07-.254-1.576-1.122-1.576-.452 0-.922.094-1.301.413.036.3.036.882.036 1.294v4.746h-2.441c-.163-.45-.235-.975-.235-1.894V8.292c0-1.031-.308-1.463-1.121-1.463-.489 0-1.085.169-1.41.469.054.244.072.525.072.92v5.101h-2.441c-.235-.45-.29-1.294-.29-2.194m18.858-4.671c-1.048 0-1.59.825-1.59 2.495 0 1.482.343 2.645 1.608 2.645 1.266 0 1.646-.938 1.646-2.608 0-1.5-.434-2.532-1.664-2.532zM75.85 9.286c0-2.907 1.519-4.896 4.61-4.896 2.713 0 4.105 1.614 4.105 4.277 0 3.264-1.663 4.934-4.665 4.934-2.278 0-4.05-1.35-4.05-4.315zm10.469 1.444V7.168l-.923-.244V4.859c.09-.018.742-.262 1.375-.262.687 0 1.663.112 1.989 1.2.614-.844 1.645-1.294 2.838-1.294 1.827 0 2.821.882 2.821 3.133l-.036 3.376.904.188v1.95c-.434.244-1.103.357-1.573.357-.976 0-1.628-.3-1.826-1.2-.217-.413-.163-2.702-.163-3.865 0-1.181-.362-1.594-1.266-1.594-.47 0-1.012.187-1.356.469.018.337.036.806.036 1.275v4.727h-2.531c-.235-.431-.29-1.2-.29-2.588m15.044-2.983c0-.844-.307-1.632-1.429-1.632-.759 0-1.338.375-1.338 1.538 0 .957.38 1.632 1.41 1.632.923 0 1.357-.544 1.357-1.538zM99.3 13.282c-.326 0-.615 0-.85-.038-.217.263-.362.394-.362.788 0 1.182.976 1.407 1.826 1.407 1.302 0 2.26-.563 2.26-1.388 0-.732-.759-.788-1.573-.788-.47 0-.976.019-1.301.019zm-3.382 1.426c0-.957.38-1.67 1.049-2.064-.217-.225-.307-.525-.307-.844 0-.6.325-1.088.922-1.294-.76-.432-1.41-1.313-1.41-2.72 0-1.932 1.247-3.34 3.797-3.34.94 0 1.808.188 2.296.6.09-.656.651-1.237 1.5-1.237.326 0 .633.094.85.244v2.176l-1.175.337c.217.263.362.75.362 1.314 0 1.707-1.284 2.982-3.634 2.982-.561 0-.94-.075-1.085-.112l-.055.75c.2.019.615.037.778.037.271 0 1.193-.056 1.32-.056 1.446 0 3.29.131 3.29 2.232 0 2.458-2.314 3.77-4.845 3.77-1.845 0-3.653-.693-3.653-2.775zm14.665-6.772c.108-.244.145-.488.145-.675 0-.732-.579-1.051-1.302-1.051-.977 0-1.483.825-1.61 1.726h2.767zm-5.425 1.407c0-3.002 1.573-4.99 4.575-4.99 1.772 0 3.327.788 3.327 2.832 0 1.707-1.139 2.364-3.11 2.364-.832 0-1.826-.113-2.224-.281 0 1.482.76 2.12 2.152 2.12 1.067 0 2.007-.32 2.784-.732l.67 1.707c-.85.825-2.514 1.275-3.997 1.275-2.748 0-4.177-1.5-4.177-4.295zm9.764 1.725V7.204l-.958-.244V4.822s.669-.263 1.356-.263c1.428 0 1.935.9 1.935 2.158h.036c.144-1.295 1.066-2.195 2.061-2.195.578 0 1.067.112 1.41.431l-.361 2.607a2.716 2.716 0 00-.723-.112c-1.14 0-1.718.882-2.008 1.67v4.201h-2.44c-.145-.262-.308-.825-.308-2.25m9.058 6.058c-1.012 0-1.88-.3-2.26-.75l.56-2.045c.525.282 1.158.432 1.502.432.614 0 1.157-.375 1.573-1.82-.778-.075-1.41-.844-1.863-1.632-.434-.788-1.048-2.382-1.356-3.039-.362-.806-.524-1.088-.994-1.275V4.822c.27-.132.741-.207 1.048-.207 1.393 0 1.899.995 2.242 1.839.272.638 1.103 3.057 1.538 4.652h.054c.416-1.426 1.211-3.958 1.211-5.478 0-.337-.018-.694-.054-.938h2.296c.272.207.47.789.47 1.651 0 1.632-1.645 6.19-2.55 8.066-.867 1.801-1.825 2.72-3.417 2.72"></path>
  <path fill="#FFFFFE" d="M29.061 27.586c.505.299 1.009.43 1.694.43 2.234 0 3.225-1.346 3.225-4.02 0-2.43-1.063-4.111-3.477-4.111-.523 0-.973.056-1.442.186v7.515zm-2.774.243v-7.627c-.667-.037-.901-.355-1.028-.504l.325-2.075c.252.037 1.063.074 1.711.074.649 0 1.856-.168 3.316-.168 4.09 0 6.18 2.318 6.18 6.318 0 4.318-2.325 6.449-6.234 6.449-1.676 0-3.262-.206-4.433-1.122.054-.261.163-.785.163-1.345zm12.269-9.253c0-.953.72-1.495 1.712-1.495.81 0 1.477.448 1.477 1.401 0 .991-.63 1.552-1.73 1.552-.9 0-1.459-.598-1.459-1.458zm.216 9.327c0-1.458.036-3.103.036-3.962l-1.009-.318v-2.037c.127-.057.811-.262 1.586-.262 1.441 0 2.126.41 2.126 2.467v6.225h-2.468c-.163-.28-.27-1.085-.27-2.113zm5.208-.131v-3.85l-.956-.243v-2.131s.667-.262 1.351-.262c1.424 0 1.928.897 1.928 2.15h.037c.144-1.29 1.062-2.187 2.053-2.187.577 0 1.064.112 1.406.43l-.36 2.598a2.704 2.704 0 00-.721-.112c-1.135 0-1.712.879-2 1.664v4.187h-2.433c-.144-.262-.306-.823-.306-2.244m11.477-3.121c.108-.243.144-.486.144-.673 0-.729-.576-1.047-1.297-1.047-.973 0-1.477.823-1.604 1.72h2.757zm-5.405 1.402c0-2.99 1.567-4.972 4.558-4.972 1.766 0 3.316.785 3.316 2.822 0 1.701-1.136 2.356-3.1 2.356-.828 0-1.82-.113-2.215-.28 0 1.476.756 2.111 2.143 2.111 1.063 0 2-.318 2.775-.729l.667 1.701c-.847.823-2.505 1.271-3.982 1.271-2.739 0-4.162-1.495-4.162-4.28zm8.792-.113c0-3.084 1.91-4.86 4.523-4.86 1.531 0 3.297.375 3.297 2.132a3.01 3.01 0 01-.288 1.345l-1.856.131-.433-1.233c-.144-.113-.468-.15-.846-.15-.811 0-1.784.561-1.784 2.3 0 1.308.504 2.373 2.126 2.373a6.282 6.282 0 002.973-.785l.612 1.832c-.756.766-2.252 1.271-4.126 1.271-2.702 0-4.198-1.514-4.198-4.355m9.747-2.075l-1.08-.411V21.66l1.26-.205v-2.113l2.199-.317c.234.373.36 1.065.36 1.887v.636h2.54v1.963c-.216.224-.756.411-1.53.411-.361 0-.758-.037-1.01-.037v2.878c0 .935.289 1.215 1.01 1.215.414 0 .828-.112 1.296-.262l.415 1.776c-.829.524-1.712.748-2.775.748-1.585 0-2.684-.654-2.684-2.692v-3.682"></path>
  </g>
</svg>